<svg width="400" height="500" viewBox="0 0 400 500" fill="none" xmlns="http://www.w3.org/2000/svg">
<rect width="400" height="500" fill="black"/>
<path d="M291.714 103H108.75C97.2901 103 88 112.29 88 123.75V375.75C88 387.21 97.2901 396.5 108.75 396.5H291.714C303.174 396.5 312.464 387.21 312.464 375.75V123.75C312.464 112.29 303.174 103 291.714 103Z" stroke="#2A2A2A" stroke-width="0.5"/>
<path d="M133.402 361C133.381 361.053 133.36 361.108 133.331 361.165V361.166C133.308 361.213 133.284 361.261 133.26 361.31C133.235 361.36 133.209 361.41 133.184 361.462V361.463C133.13 361.571 133.076 361.68 133.022 361.788L132.981 361.872C132.845 362.149 132.713 362.428 132.582 362.706C132.381 363.132 132.175 363.556 131.966 363.978C131.789 364.334 131.614 364.693 131.442 365.053C131.424 365.09 131.407 365.128 131.389 365.166V365.167C131.373 365.2 131.357 365.232 131.341 365.266L131.297 365.351L131.293 365.358C131.282 365.381 131.271 365.402 131.261 365.425C131.224 365.425 131.187 365.426 131.148 365.426H131.146C131.119 365.426 131.094 365.426 131.067 365.427C130.983 365.428 130.898 365.428 130.811 365.428H130.809C130.746 365.428 130.682 365.429 130.619 365.43L130.103 365.433L129.542 365.438C129.092 365.441 128.642 365.443 128.191 365.444C127.979 365.445 127.767 365.446 127.556 365.447C126.851 365.45 126.146 365.453 125.441 365.454C125.258 365.454 125.075 365.455 124.893 365.455C124.825 365.455 124.824 365.456 124.755 365.456C124.018 365.458 123.28 365.462 122.543 365.468C121.788 365.474 121.032 365.477 120.276 365.478H120.275C119.85 365.478 119.425 365.48 118.999 365.484C118.639 365.488 118.278 365.49 117.918 365.488C117.733 365.487 117.546 365.488 117.358 365.491C116.807 365.501 116.562 365.505 116.419 365.487C116.357 365.48 116.329 365.47 116.31 365.46C116.287 365.449 116.264 365.432 116.217 365.396C116.117 365.271 116.055 365.134 116.008 364.943L116.005 364.928L115.999 364.913L115.929 364.733C115.903 364.67 115.871 364.603 115.837 364.54H115.838L115.723 364.309C115.679 364.221 115.635 364.133 115.592 364.046L115.526 363.913L115.151 363.163C114.991 362.843 114.83 362.522 114.67 362.202C114.63 362.122 114.589 362.041 114.549 361.96L114.206 361.286L114.155 361.188L114.056 361H133.402Z" stroke="#2A2A2A" stroke-width="0.5"/>
<path d="M126.413 367.001C126.383 367.064 126.347 367.132 126.303 367.209L126.302 367.211C126.264 367.279 126.226 367.347 126.188 367.415C126.159 367.467 126.159 367.467 126.13 367.52L126.129 367.521C126.059 367.646 125.99 367.772 125.922 367.897C125.554 368.575 125.179 369.249 124.799 369.919C124.563 370.334 124.33 370.75 124.1 371.167C123.749 371.801 123.396 372.433 123.041 373.065L122.908 373.302L122.785 373.521C122.765 373.556 122.745 373.591 122.725 373.628C122.612 373.827 122.5 374.027 122.387 374.226C122.129 374.679 121.872 375.134 121.625 375.597C121.538 375.758 121.451 375.92 121.363 376.082L121.07 376.641C121.031 376.715 120.991 376.79 120.951 376.865L120.945 376.877C120.932 376.905 120.92 376.933 120.906 376.961C120.774 377.202 120.533 377.29 120.177 377.457C120.043 377.52 119.91 377.586 119.78 377.65L119.271 377.9C119.234 377.918 119.196 377.936 119.158 377.955C118.366 378.341 117.57 378.721 116.773 379.101C116.449 379.255 116.125 379.411 115.802 379.566L115.553 379.686C115.299 379.808 115.045 379.93 114.791 380.055C114.671 380.113 114.551 380.172 114.431 380.23H114.43C114.381 380.254 114.333 380.278 114.284 380.302C114.375 380.143 114.465 379.984 114.551 379.822C114.73 379.487 114.915 379.154 115.104 378.822C115.332 378.423 115.553 378.021 115.771 377.616L115.772 377.617C115.964 377.263 116.158 376.912 116.357 376.565C116.542 376.245 116.72 375.922 116.897 375.602C117.234 374.994 117.575 374.388 117.918 373.784C118.248 373.203 118.578 372.62 118.902 372.034C119.321 371.278 119.741 370.525 120.172 369.777C120.365 369.441 120.556 369.103 120.744 368.766C120.968 368.365 121.192 367.964 121.42 367.566H121.421C121.445 367.523 121.469 367.479 121.494 367.435L121.495 367.436C121.518 367.396 121.541 367.356 121.564 367.314V367.313C121.593 367.264 121.594 367.262 121.621 367.215C121.651 367.167 121.651 367.166 121.681 367.117L121.682 367.116C121.698 367.089 121.714 367.061 121.73 367.033C121.734 367.029 121.736 367.026 121.739 367.022H121.812C121.875 367.021 121.875 367.021 121.938 367.021C121.982 367.021 122.027 367.021 122.072 367.021H122.076C122.125 367.021 122.172 367.02 122.222 367.02C122.38 367.018 122.538 367.019 122.697 367.019H122.699C122.81 367.018 122.921 367.017 123.031 367.017C123.322 367.015 123.613 367.013 123.904 367.013C124.201 367.012 124.499 367.01 124.795 367.008C125.335 367.005 125.874 367.002 126.413 367.001Z" stroke="#2A2A2A" stroke-width="0.5"/>
<path d="M110.951 159.122L110.953 159.372L287.494 158.283L287.493 158.033L287.492 157.783L110.95 158.872L110.951 159.122Z" fill="#2A2A2A"/>
<path d="M110.951 197.233L110.953 197.483L252.186 196.425L252.184 196.175L252.182 195.925L110.949 196.983L110.951 197.233Z" fill="#2A2A2A"/>
<path d="M110.951 235.344L110.953 235.594L265.3 234.526L265.298 234.276L265.297 234.026L110.95 235.094L110.951 235.344Z" fill="#2A2A2A"/>
<path d="M110.951 273.456L110.953 273.706L287.494 272.617L287.493 272.367L287.492 272.117L110.95 273.206L110.951 273.456Z" fill="#2A2A2A"/>
<path d="M110.95 311.567L110.953 311.817L213.851 310.739L213.849 310.489L213.847 310.239L110.948 311.317L110.95 311.567Z" fill="#2A2A2A"/>
</svg>
